<?xml version="1.0" standalone="no"?>
<!DOCTYPE svg PUBLIC "-//W3C//DTD SVG 1.1//EN" 
  "http://www.w3.org/Graphics/SVG/1.1/DTD/svg11.dtd">
<svg width="256" height="256" viewBox="0 0 256 256"
     xmlns="http://www.w3.org/2000/svg" version="1.1">
<desc>'c_circuit_1.blend', Cube, (Blender 2.77 (sub 0))</desc>
<polygon stroke="black" stroke-width="1" fill="rgb(204, 204, 204)" fill-opacity="0.25" points="-0.054,256.247 -0.054,256.247 256.212,256.247 256.212,256.247 236.992,256.247 " />
<polygon stroke="black" stroke-width="1" fill="rgb(204, 204, 204)" fill-opacity="0.25" points="40.448,16.910 -0.054,-0.019 256.212,-0.019 125.516,20.482 119.109,9.386 106.296,9.386 99.889,20.482 106.296,31.579 90.984,27.029 94.764,20.482 88.357,9.386 75.544,9.386 69.137,20.482 75.544,31.579 61.093,25.539 64.012,20.482 57.606,9.386 44.792,9.386 " />
<polygon stroke="black" stroke-width="1" fill="rgb(204, 204, 204)" fill-opacity="0.25" points="-0.054,256.247 -0.054,-0.019 -0.054,-0.019 -0.054,256.247 " />
<polygon stroke="black" stroke-width="1" fill="rgb(204, 204, 204)" fill-opacity="0.25" points="106.296,31.579 119.109,31.579 125.516,20.482 256.212,-0.019 256.212,256.247 -0.054,256.247 -0.054,-0.019 40.448,16.910 38.386,20.482 44.792,31.579 57.606,31.579 61.093,25.539 75.544,31.579 88.357,31.579 90.984,27.029 " />
<polygon stroke="black" stroke-width="1" fill="rgb(204, 204, 204)" fill-opacity="0.25" points="256.212,256.247 256.212,-0.019 256.212,-0.019 256.212,256.247 " />
<polygon stroke="black" stroke-width="1" fill="rgb(204, 204, 204)" fill-opacity="0.25" points="-0.054,-0.019 256.212,-0.019 256.212,-0.019 -0.054,-0.019 " />
<polygon stroke="black" stroke-width="1" fill="rgb(204, 204, 204)" fill-opacity="0.25" points="15.322,217.807 79.388,217.807 79.388,217.807 15.322,217.807 " />
<polygon stroke="black" stroke-width="1" fill="rgb(204, 204, 204)" fill-opacity="0.25" points="106.296,31.579 119.109,31.579 119.109,31.579 106.296,31.579 " />
<polygon stroke="black" stroke-width="1" fill="rgb(204, 204, 204)" fill-opacity="0.25" points="236.992,224.214 236.992,224.214 236.992,230.620 236.992,230.620 236.992,204.994 236.992,204.994 " />
<polygon stroke="black" stroke-width="1" fill="rgb(204, 204, 204)" fill-opacity="0.25" points="204.958,230.620 172.925,230.620 172.925,230.620 236.992,230.620 236.992,230.620 204.958,230.620 216.055,230.620 " />
<polygon stroke="black" stroke-width="1" fill="rgb(204, 204, 204)" fill-opacity="0.25" points="15.322,153.740 15.322,217.807 15.322,217.807 15.322,153.740 " />
<polygon stroke="black" stroke-width="1" fill="rgb(204, 204, 204)" fill-opacity="0.25" points="79.388,217.807 79.388,153.740 79.388,153.740 79.388,217.807 " />
<polygon stroke="black" stroke-width="1" fill="rgb(204, 204, 204)" fill-opacity="0.25" points="79.388,153.740 15.322,153.740 15.322,217.807 79.388,217.807 " />
<polygon stroke="black" stroke-width="1" fill="rgb(204, 204, 204)" fill-opacity="0.25" points="99.889,20.482 106.296,31.579 106.296,31.579 99.889,20.482 " />
<polygon stroke="black" stroke-width="1" fill="rgb(204, 204, 204)" fill-opacity="0.25" points="88.357,31.579 94.764,20.482 94.764,20.482 90.984,27.029 88.357,31.579 " />
<polygon stroke="black" stroke-width="1" fill="rgb(204, 204, 204)" fill-opacity="0.25" points="94.764,20.482 94.076,19.290 88.357,9.386 88.357,9.386 94.764,20.482 " />
<polygon stroke="black" stroke-width="1" fill="rgb(204, 204, 204)" fill-opacity="0.25" points="88.357,9.386 75.544,9.386 75.544,9.386 88.357,9.386 " />
<polygon stroke="black" stroke-width="1" fill="rgb(204, 204, 204)" fill-opacity="0.25" points="75.544,9.386 72.394,14.842 69.137,20.482 69.137,20.482 75.544,9.386 " />
<polygon stroke="black" stroke-width="1" fill="rgb(204, 204, 204)" fill-opacity="0.25" points="69.137,20.482 75.544,31.579 75.544,31.579 69.137,20.482 " />
<polygon stroke="black" stroke-width="1" fill="rgb(204, 204, 204)" fill-opacity="0.25" points="64.012,20.482 59.192,12.134 57.606,9.386 57.606,9.386 64.012,20.482 " />
<polygon stroke="black" stroke-width="1" fill="rgb(204, 204, 204)" fill-opacity="0.25" points="57.606,9.386 45.793,9.386 44.792,9.386 44.792,9.386 57.606,9.386 " />
<polygon stroke="black" stroke-width="1" fill="rgb(204, 204, 204)" fill-opacity="0.25" points="44.792,9.386 38.386,20.482 38.386,20.482 40.448,16.910 44.792,9.386 " />
<polygon stroke="black" stroke-width="1" fill="rgb(204, 204, 204)" fill-opacity="0.25" points="125.516,20.482 120.756,12.237 119.109,9.386 119.109,9.386 125.516,20.482 " />
<polygon stroke="black" stroke-width="1" fill="rgb(204, 204, 204)" fill-opacity="0.25" points="119.109,9.386 106.296,9.386 106.296,9.386 119.109,9.386 " />
<polygon stroke="black" stroke-width="1" fill="rgb(204, 204, 204)" fill-opacity="0.25" points="106.296,9.386 99.889,20.482 99.889,20.482 106.296,9.386 " />
<polygon stroke="black" stroke-width="1" fill="rgb(204, 204, 204)" fill-opacity="0.25" points="44.792,31.579 57.606,31.579 57.606,31.579 44.792,31.579 " />
<polygon stroke="black" stroke-width="1" fill="rgb(204, 204, 204)" fill-opacity="0.25" points="38.386,20.482 44.792,31.579 44.792,31.579 38.386,20.482 " />
<polygon stroke="black" stroke-width="1" fill="rgb(204, 204, 204)" fill-opacity="0.25" points="119.109,31.579 125.516,20.482 125.516,20.482 119.109,31.579 " />
<polygon stroke="black" stroke-width="1" fill="rgb(204, 204, 204)" fill-opacity="0.25" points="236.992,204.994 172.925,204.994 172.925,204.994 236.992,204.994 " />
<polygon stroke="black" stroke-width="1" fill="rgb(204, 204, 204)" fill-opacity="0.25" points="172.925,204.994 172.925,224.214 236.992,224.214 236.992,204.994 " />
<polygon stroke="black" stroke-width="1" fill="rgb(204, 204, 204)" fill-opacity="0.25" points="204.958,230.620 193.862,230.620 204.958,230.620 236.992,230.620 172.925,230.620 172.925,230.620 " />
<polygon stroke="black" stroke-width="1" fill="rgb(204, 204, 204)" fill-opacity="0.25" points="79.388,153.740 15.322,153.740 15.322,153.740 79.388,153.740 " />
<polygon stroke="black" stroke-width="1" fill="rgb(204, 204, 204)" fill-opacity="0.25" points="220.334,17.920 212.646,17.920 212.646,17.920 220.334,17.920 " />
<polygon stroke="black" stroke-width="1" fill="rgb(204, 204, 204)" fill-opacity="0.25" points="75.544,31.579 88.357,31.579 88.357,31.579 75.544,31.579 " />
<polygon stroke="black" stroke-width="1" fill="rgb(204, 204, 204)" fill-opacity="0.25" points="57.606,31.579 64.012,20.482 64.012,20.482 61.093,25.539 57.606,31.579 " />
<polygon stroke="black" stroke-width="1" fill="rgb(204, 204, 204)" fill-opacity="0.25" points="228.022,108.894 228.022,57.641 228.022,57.641 228.022,108.894 " />
<polygon stroke="black" stroke-width="1" fill="rgb(204, 204, 204)" fill-opacity="0.25" points="220.334,38.421 220.334,17.920 220.334,17.920 220.334,38.421 " />
<polygon stroke="black" stroke-width="1" fill="rgb(204, 204, 204)" fill-opacity="0.25" points="204.958,224.214 172.925,224.214 172.925,224.214 236.992,224.214 204.958,224.214 193.862,224.214 " />
<polygon stroke="black" stroke-width="1" fill="rgb(204, 204, 204)" fill-opacity="0.25" points="204.958,224.214 216.055,224.214 204.958,224.214 236.992,224.214 236.992,224.214 172.925,224.214 " />
<polygon stroke="black" stroke-width="1" fill="rgb(204, 204, 204)" fill-opacity="0.25" points="236.992,224.214 172.925,224.214 172.925,230.620 236.992,230.620 " />
<polygon stroke="black" stroke-width="1" fill="rgb(204, 204, 204)" fill-opacity="0.25" points="130.641,107.613 151.143,107.613 151.143,107.613 130.641,107.613 " />
<polygon stroke="black" stroke-width="1" fill="rgb(204, 204, 204)" fill-opacity="0.25" points="15.322,217.807 15.322,153.740 79.388,153.740 176.769,99.925 176.769,57.641 220.334,57.641 220.334,38.421 212.646,38.421 202.396,38.421 194.708,38.421 184.457,38.421 176.769,38.421 176.769,17.920 151.143,64.047 151.143,71.735 130.641,71.735 130.641,81.986 151.143,81.986 151.143,89.674 151.143,99.925 151.143,107.613 130.641,107.613 -0.054,-0.019 -0.054,256.247 236.992,256.247 236.992,230.620 172.925,230.620 172.925,204.994 79.388,217.807 " />
<polygon stroke="black" stroke-width="1" fill="rgb(204, 204, 204)" fill-opacity="0.25" points="212.646,17.920 212.646,38.421 212.646,38.421 212.646,17.920 " />
<polygon stroke="black" stroke-width="1" fill="rgb(204, 204, 204)" fill-opacity="0.25" points="212.646,17.920 212.646,38.421 220.334,38.421 220.334,17.920 " />
<polygon stroke="black" stroke-width="1" fill="rgb(204, 204, 204)" fill-opacity="0.25" points="176.769,108.894 228.022,108.894 228.022,108.894 176.769,108.894 " />
<polygon stroke="black" stroke-width="1" fill="rgb(204, 204, 204)" fill-opacity="0.25" points="228.022,57.641 220.334,57.641 176.769,57.641 176.769,57.641 228.022,57.641 " />
<polygon stroke="black" stroke-width="1" fill="rgb(204, 204, 204)" fill-opacity="0.25" points="228.022,57.641 176.769,57.641 176.769,108.894 228.022,108.894 " />
<polygon stroke="black" stroke-width="1" fill="rgb(204, 204, 204)" fill-opacity="0.25" points="212.646,38.421 220.334,38.421 220.334,38.421 212.646,38.421 " />
<polygon stroke="black" stroke-width="1" fill="rgb(204, 204, 204)" fill-opacity="0.25" points="176.769,99.925 228.022,108.894 176.769,108.894 " />
<polygon stroke="black" stroke-width="1" fill="rgb(204, 204, 204)" fill-opacity="0.25" points="130.641,99.925 130.641,107.613 130.641,107.613 130.641,99.925 " />
<polygon stroke="black" stroke-width="1" fill="rgb(204, 204, 204)" fill-opacity="0.25" points="151.143,107.613 151.143,99.925 151.143,99.925 151.143,107.613 " />
<polygon stroke="black" stroke-width="1" fill="rgb(204, 204, 204)" fill-opacity="0.25" points="130.641,107.613 151.143,107.613 151.143,99.925 130.641,99.925 " />
<polygon stroke="black" stroke-width="1" fill="rgb(204, 204, 204)" fill-opacity="0.25" points="202.396,17.920 194.708,17.920 194.708,17.920 202.396,17.920 " />
<polygon stroke="black" stroke-width="1" fill="rgb(204, 204, 204)" fill-opacity="0.25" points="44.792,9.386 45.793,9.386 -0.054,-0.019 130.641,107.613 130.641,99.925 151.143,99.925 151.143,89.674 130.641,89.674 130.641,81.986 130.641,71.735 130.641,64.047 151.143,64.047 176.769,17.920 120.756,12.237 125.516,20.482 119.109,31.579 106.296,31.579 99.889,20.482 94.076,19.290 94.764,20.482 88.357,31.579 75.544,31.579 69.137,20.482 72.394,14.842 59.192,12.134 64.012,20.482 57.606,31.579 44.792,31.579 38.386,20.482 " />
<polygon stroke="black" stroke-width="1" fill="rgb(204, 204, 204)" fill-opacity="0.25" points="184.457,17.920 176.769,17.920 176.769,17.920 184.457,17.920 " />
<polygon stroke="black" stroke-width="1" fill="rgb(204, 204, 204)" fill-opacity="0.25" points="202.396,38.421 202.396,17.920 202.396,17.920 202.396,38.421 " />
<polygon stroke="black" stroke-width="1" fill="rgb(204, 204, 204)" fill-opacity="0.25" points="130.641,64.047 130.641,71.735 130.641,71.735 130.641,64.047 " />
<polygon stroke="black" stroke-width="1" fill="rgb(204, 204, 204)" fill-opacity="0.25" points="151.143,64.047 130.641,64.047 130.641,64.047 151.143,64.047 " />
<polygon stroke="black" stroke-width="1" fill="rgb(204, 204, 204)" fill-opacity="0.25" points="176.769,57.641 176.769,99.925 176.769,108.894 176.769,108.894 176.769,57.641 " />
<polygon stroke="black" stroke-width="1" fill="rgb(204, 204, 204)" fill-opacity="0.25" points="151.143,99.925 130.641,99.925 130.641,99.925 151.143,99.925 " />
<polygon stroke="black" stroke-width="1" fill="rgb(204, 204, 204)" fill-opacity="0.25" points="194.708,17.920 194.708,38.421 194.708,38.421 194.708,17.920 " />
<polygon stroke="black" stroke-width="1" fill="rgb(204, 204, 204)" fill-opacity="0.25" points="194.708,17.920 194.708,38.421 202.396,38.421 202.396,17.920 " />
<polygon stroke="black" stroke-width="1" fill="rgb(204, 204, 204)" fill-opacity="0.25" points="184.457,38.421 184.457,17.920 184.457,17.920 184.457,38.421 " />
<polygon stroke="black" stroke-width="1" fill="rgb(204, 204, 204)" fill-opacity="0.25" points="176.769,17.920 176.769,38.421 176.769,38.421 176.769,17.920 " />
<polygon stroke="black" stroke-width="1" fill="rgb(204, 204, 204)" fill-opacity="0.25" points="176.769,17.920 176.769,38.421 184.457,38.421 184.457,17.920 " />
<polygon stroke="black" stroke-width="1" fill="rgb(204, 204, 204)" fill-opacity="0.25" points="194.708,38.421 202.396,38.421 202.396,38.421 194.708,38.421 " />
<polygon stroke="black" stroke-width="1" fill="rgb(204, 204, 204)" fill-opacity="0.25" points="130.641,71.735 151.143,71.735 151.143,71.735 130.641,71.735 " />
<polygon stroke="black" stroke-width="1" fill="rgb(204, 204, 204)" fill-opacity="0.25" points="151.143,64.047 130.641,64.047 130.641,71.735 151.143,71.735 " />
<polygon stroke="black" stroke-width="1" fill="rgb(204, 204, 204)" fill-opacity="0.25" points="151.143,71.735 151.143,64.047 151.143,64.047 151.143,71.735 " />
<polygon stroke="black" stroke-width="1" fill="rgb(204, 204, 204)" fill-opacity="0.25" points="193.862,230.620 204.958,230.620 204.958,224.214 193.862,224.214 " />
<polygon stroke="black" stroke-width="1" fill="rgb(204, 204, 204)" fill-opacity="0.25" points="99.889,20.482 106.296,9.386 119.109,9.386 120.756,12.237 176.769,17.920 184.457,17.920 184.457,38.421 194.708,38.421 194.708,17.920 202.396,17.920 202.396,38.421 212.646,38.421 212.646,17.920 220.334,17.920 220.334,38.421 220.334,57.641 228.022,57.641 228.022,108.894 176.769,99.925 79.388,153.740 79.388,217.807 172.925,204.994 236.992,204.994 236.992,230.620 236.992,256.247 256.212,256.247 256.212,-0.019 -0.054,-0.019 45.793,9.386 57.606,9.386 59.192,12.134 72.394,14.842 75.544,9.386 88.357,9.386 94.076,19.290 " />
<polygon stroke="black" stroke-width="1" fill="rgb(204, 204, 204)" fill-opacity="0.25" points="176.769,38.421 184.457,38.421 184.457,38.421 176.769,38.421 " />
<polygon stroke="black" stroke-width="1" fill="rgb(204, 204, 204)" fill-opacity="0.25" points="130.641,89.674 151.143,89.674 151.143,89.674 130.641,89.674 " />
<polygon stroke="black" stroke-width="1" fill="rgb(204, 204, 204)" fill-opacity="0.25" points="151.143,81.986 130.641,81.986 130.641,81.986 151.143,81.986 " />
<polygon stroke="black" stroke-width="1" fill="rgb(204, 204, 204)" fill-opacity="0.25" points="130.641,81.986 130.641,89.674 130.641,89.674 130.641,81.986 " />
<polygon stroke="black" stroke-width="1" fill="rgb(204, 204, 204)" fill-opacity="0.25" points="151.143,89.674 151.143,81.986 151.143,81.986 151.143,89.674 " />
<polygon stroke="black" stroke-width="1" fill="rgb(204, 204, 204)" fill-opacity="0.25" points="151.143,81.986 130.641,81.986 130.641,89.674 151.143,89.674 " />
<polygon stroke="black" stroke-width="1" fill="rgb(204, 204, 204)" fill-opacity="0.25" points="204.958,230.620 193.862,230.620 193.862,224.214 204.958,224.214 " />
<polygon stroke="black" stroke-width="1" fill="rgb(204, 204, 204)" fill-opacity="0.25" points="216.055,230.620 204.958,230.620 204.958,224.214 216.055,224.214 " />
<polygon stroke="black" stroke-width="1" fill="rgb(204, 204, 204)" fill-opacity="0.25" points="204.958,230.620 216.055,230.620 216.055,224.214 204.958,224.214 " />
<polygon stroke="black" stroke-width="1" fill="rgb(204, 204, 204)" fill-opacity="0.25" points="172.925,230.620 172.925,230.620 172.925,224.214 172.925,224.214 172.925,204.994 172.925,204.994 172.925,230.620 " />

</svg>
