<?xml version="1.0" standalone="no"?>
<!DOCTYPE svg PUBLIC "-//W3C//DTD SVG 1.1//EN" 
  "http://www.w3.org/Graphics/SVG/1.1/DTD/svg11.dtd">
<svg width="1024" height="1024" viewBox="0 0 1024 1024"
     xmlns="http://www.w3.org/2000/svg" version="1.1">
<desc>'flowerpot.blend', Cylinder, (Blender 2.71 (sub 0))</desc>
<polygon stroke="black" stroke-width="1" fill="grey" fill-opacity="0.25" points="363.780,379.727 399.636,676.455 416.374,677.602 389.731,381.505 " />
<polygon stroke="black" stroke-width="1" fill="grey" fill-opacity="0.25" points="449.178,383.355 454.718,678.795 474.849,678.795 480.389,383.355 " />
<polygon stroke="black" stroke-width="1" fill="grey" fill-opacity="0.25" points="480.389,383.355 474.849,678.795 494.594,678.393 511.001,382.731 " />
<polygon stroke="black" stroke-width="1" fill="grey" fill-opacity="0.25" points="511.001,382.731 494.594,678.393 513.193,677.602 539.836,381.505 " />
<polygon stroke="black" stroke-width="1" fill="grey" fill-opacity="0.25" points="539.836,381.505 513.193,677.602 529.931,676.455 565.787,379.727 " />
<polygon stroke="black" stroke-width="1" fill="grey" fill-opacity="0.25" points="565.787,379.727 529.931,676.455 544.166,674.995 587.857,377.463 " />
<polygon stroke="black" stroke-width="1" fill="grey" fill-opacity="0.25" points="0.000,0.000 35.856,296.728 52.594,297.876 25.951,1.779 " />
<polygon stroke="black" stroke-width="1" fill="grey" fill-opacity="0.25" points="25.951,1.779 52.594,297.876 71.193,298.666 54.786,3.004 " />
<polygon stroke="black" stroke-width="1" fill="grey" fill-opacity="0.25" points="54.786,3.004 71.193,298.666 90.938,299.069 85.398,3.629 " />
<polygon stroke="black" stroke-width="1" fill="grey" fill-opacity="0.25" points="85.398,3.629 90.938,299.069 111.069,299.069 116.609,3.629 " />
<polygon stroke="black" stroke-width="1" fill="grey" fill-opacity="0.25" points="116.609,3.629 111.069,299.069 130.814,298.666 147.220,3.004 " />
<polygon stroke="black" stroke-width="1" fill="grey" fill-opacity="0.25" points="147.220,3.004 130.814,298.666 149.413,297.876 176.056,1.779 " />
<polygon stroke="black" stroke-width="1" fill="grey" fill-opacity="0.25" points="176.056,1.779 149.413,297.876 166.151,296.728 202.007,0.000 " />
<polygon stroke="black" stroke-width="1" fill="grey" fill-opacity="0.25" points="341.711,77.285 388.021,374.362 402.268,375.679 363.799,79.326 " />
<polygon stroke="black" stroke-width="1" fill="grey" fill-opacity="0.25" points="363.799,79.326 402.268,375.679 419.016,376.657 389.765,80.842 " />
<polygon stroke="black" stroke-width="1" fill="grey" fill-opacity="0.25" points="389.765,80.842 419.016,376.657 437.621,377.259 418.610,81.776 " />
<polygon stroke="black" stroke-width="1" fill="grey" fill-opacity="0.25" points="418.610,81.776 437.621,377.259 457.368,377.463 449.225,82.091 " />
<polygon stroke="black" stroke-width="1" fill="grey" fill-opacity="0.25" points="449.225,82.091 457.368,377.463 477.499,377.259 480.435,81.776 " />
<polygon stroke="black" stroke-width="1" fill="grey" fill-opacity="0.25" points="480.435,81.776 477.499,377.259 497.239,376.657 511.040,80.842 " />
<polygon stroke="black" stroke-width="1" fill="grey" fill-opacity="0.25" points="511.040,80.842 497.239,376.657 515.830,375.679 539.863,79.326 " />
<polygon stroke="black" stroke-width="1" fill="grey" fill-opacity="0.25" points="539.863,79.326 515.830,375.679 532.558,374.362 565.797,77.285 " />
<polygon stroke="black" stroke-width="1" fill="grey" fill-opacity="0.25" points="587.857,33.990 634.167,331.067 648.414,332.383 609.945,36.031 " />
<polygon stroke="black" stroke-width="1" fill="grey" fill-opacity="0.25" points="609.945,36.031 648.414,332.383 665.162,333.362 635.911,37.547 " />
<polygon stroke="black" stroke-width="1" fill="grey" fill-opacity="0.25" points="635.911,37.547 665.162,333.362 683.767,333.964 664.756,38.481 " />
<polygon stroke="black" stroke-width="1" fill="grey" fill-opacity="0.25" points="664.756,38.481 683.767,333.964 703.514,334.167 695.371,38.796 " />
<polygon stroke="black" stroke-width="1" fill="grey" fill-opacity="0.25" points="695.371,38.796 703.514,334.167 723.645,333.964 726.581,38.481 " />
<polygon stroke="black" stroke-width="1" fill="grey" fill-opacity="0.25" points="726.581,38.481 723.645,333.964 743.385,333.362 757.186,37.547 " />
<polygon stroke="black" stroke-width="1" fill="grey" fill-opacity="0.25" points="757.186,37.547 743.385,333.362 761.976,332.383 786.009,36.031 " />
<polygon stroke="black" stroke-width="1" fill="grey" fill-opacity="0.25" points="786.009,36.031 761.976,332.383 778.704,331.067 811.943,33.990 " />
<polygon stroke="black" stroke-width="1" fill="grey" fill-opacity="0.25" points="341.711,377.463 385.401,674.995 399.636,676.455 363.780,379.727 " />
<polygon stroke="black" stroke-width="1" fill="grey" fill-opacity="0.25" points="418.567,382.731 434.973,678.392 454.718,678.795 449.178,383.355 " />
<polygon stroke="black" stroke-width="1" fill="grey" fill-opacity="0.25" points="928.925,664.228 945.692,656.791 960.783,645.994 973.616,632.253 983.699,616.094 990.644,598.140 994.185,579.080 994.185,559.646 990.644,540.586 983.699,522.631 973.616,506.473 960.783,492.731 945.692,481.934 928.925,474.497 911.125,470.706 892.976,470.706 875.175,474.497 858.408,481.934 843.318,492.731 830.484,506.473 820.401,522.631 813.456,540.586 809.915,559.646 809.915,579.080 813.456,598.140 820.401,616.094 830.484,632.253 843.318,645.994 858.408,656.791 875.175,664.228 892.976,668.019 911.125,668.019 " />
<polygon stroke="black" stroke-width="1" fill="grey" fill-opacity="0.25" points="341.711,1018.425 362.589,1020.567 400.453,680.089 387.847,678.795 " />
<polygon stroke="black" stroke-width="1" fill="grey" fill-opacity="0.25" points="332.006,893.396 338.447,858.725 326.740,857.491 320.749,889.739 " />
<polygon stroke="black" stroke-width="1" fill="grey" fill-opacity="0.25" points="867.359,680.088 838.399,680.679 855.725,1022.284 873.209,1021.927 " />
<polygon stroke="black" stroke-width="1" fill="grey" fill-opacity="0.25" points="362.589,1020.567 387.140,1022.250 415.275,681.104 400.453,680.089 " />
<polygon stroke="black" stroke-width="1" fill="grey" fill-opacity="0.25" points="599.109,1021.384 626.377,1022.818 646.712,681.404 630.249,680.538 " />
<polygon stroke="black" stroke-width="1" fill="grey" fill-opacity="0.25" points="587.857,674.248 608.753,676.179 643.615,335.333 630.999,334.167 " />
<polygon stroke="black" stroke-width="1" fill="grey" fill-opacity="0.25" points="684.856,1024.000 713.820,1023.702 699.505,681.937 682.018,682.117 " />
<polygon stroke="black" stroke-width="1" fill="grey" fill-opacity="0.25" points="660.606,678.497 689.570,678.795 692.408,336.913 674.921,336.733 " />
<polygon stroke="black" stroke-width="1" fill="grey" fill-opacity="0.25" points="472.906,1024.000 501.866,1023.409 484.540,681.804 467.056,682.161 " />
<polygon stroke="black" stroke-width="1" fill="grey" fill-opacity="0.25" points="765.673,1021.383 786.569,1019.453 743.427,679.372 730.811,680.538 " />
<polygon stroke="black" stroke-width="1" fill="grey" fill-opacity="0.25" points="748.049,677.614 775.317,676.179 744.177,335.333 727.714,336.199 " />
<polygon stroke="black" stroke-width="1" fill="grey" fill-opacity="0.25" points="925.846,680.679 896.886,680.088 891.036,1021.927 908.520,1022.284 " />
<polygon stroke="black" stroke-width="1" fill="grey" fill-opacity="0.25" points="553.696,1020.567 574.575,1018.425 528.438,678.795 515.833,680.089 " />
<polygon stroke="black" stroke-width="1" fill="grey" fill-opacity="0.25" points="838.399,680.679 811.120,681.838 839.255,1022.984 855.725,1022.284 " />
<polygon stroke="black" stroke-width="1" fill="grey" fill-opacity="0.25" points="626.377,1022.818 655.330,1023.702 664.192,681.937 646.712,681.404 " />
<polygon stroke="black" stroke-width="1" fill="grey" fill-opacity="0.25" points="608.753,676.179 633.318,677.614 658.446,336.199 643.615,335.333 " />
<polygon stroke="black" stroke-width="1" fill="grey" fill-opacity="0.25" points="713.820,1023.702 741.108,1022.818 715.980,681.404 699.505,681.937 " />
<polygon stroke="black" stroke-width="1" fill="grey" fill-opacity="0.25" points="689.570,678.795 719.096,678.497 710.234,336.733 692.408,336.913 " />
<polygon stroke="black" stroke-width="1" fill="grey" fill-opacity="0.25" points="501.866,1023.409 529.145,1022.250 501.010,681.104 484.540,681.804 " />
<polygon stroke="black" stroke-width="1" fill="grey" fill-opacity="0.25" points="977.676,683.521 953.125,681.839 924.990,1022.984 939.812,1024.000 " />
<polygon stroke="black" stroke-width="1" fill="grey" fill-opacity="0.25" points="775.317,676.179 799.852,674.248 758.990,334.167 744.177,335.333 " />
<polygon stroke="black" stroke-width="1" fill="grey" fill-opacity="0.25" points="896.886,680.088 867.359,680.088 873.209,1021.927 891.036,1021.927 " />
<polygon stroke="black" stroke-width="1" fill="grey" fill-opacity="0.25" points="574.575,1019.453 599.109,1021.384 630.249,680.538 615.436,679.372 " />
<polygon stroke="black" stroke-width="1" fill="grey" fill-opacity="0.25" points="338.447,823.376 332.006,788.706 320.749,792.362 326.740,824.611 " />
<polygon stroke="black" stroke-width="1" fill="grey" fill-opacity="0.25" points="811.120,681.838 786.569,683.521 824.432,1024.000 839.255,1022.984 " />
<polygon stroke="black" stroke-width="1" fill="grey" fill-opacity="0.25" points="655.330,1023.702 684.856,1024.000 682.018,682.117 664.192,681.937 " />
<polygon stroke="black" stroke-width="1" fill="grey" fill-opacity="0.25" points="633.318,677.614 660.606,678.497 674.921,336.733 658.446,336.199 " />
<polygon stroke="black" stroke-width="1" fill="grey" fill-opacity="0.25" points="443.379,1024.000 472.906,1024.000 467.056,682.161 449.229,682.161 " />
<polygon stroke="black" stroke-width="1" fill="grey" fill-opacity="0.25" points="741.108,1022.818 765.673,1021.383 730.811,680.538 715.980,681.404 " />
<polygon stroke="black" stroke-width="1" fill="grey" fill-opacity="0.25" points="719.096,678.497 748.049,677.614 727.714,336.199 710.234,336.733 " />
<polygon stroke="black" stroke-width="1" fill="grey" fill-opacity="0.25" points="529.145,1022.250 553.696,1020.567 515.833,680.089 501.010,681.104 " />
<polygon stroke="black" stroke-width="1" fill="grey" fill-opacity="0.25" points="953.125,681.839 925.846,680.679 908.520,1022.284 924.990,1022.984 " />
<polygon stroke="black" stroke-width="1" fill="grey" fill-opacity="0.25" points="815.421,208.996 811.943,227.718 811.943,246.806 815.421,265.528 822.243,283.164 832.147,299.035 844.753,312.533 859.575,323.138 876.045,330.443 893.529,334.167 911.356,334.167 928.841,330.443 945.310,323.138 960.133,312.533 972.738,299.035 982.642,283.164 989.464,265.528 992.942,246.806 992.942,227.717 989.464,208.996 982.642,191.360 972.738,175.488 960.133,161.990 945.310,151.385 928.840,144.080 911.356,140.356 893.529,140.356 876.045,144.081 859.575,151.385 844.753,161.991 832.147,175.488 822.243,191.360 " />
<polygon stroke="black" stroke-width="1" fill="grey" fill-opacity="0.25" points="40.678,955.446 64.022,980.442 71.485,970.705 49.772,947.455 " />
<polygon stroke="black" stroke-width="1" fill="grey" fill-opacity="0.25" points="154.349,661.596 121.971,668.492 125.386,680.547 155.502,674.132 " />
<polygon stroke="black" stroke-width="1" fill="grey" fill-opacity="0.25" points="301.032,955.446 319.373,926.054 308.998,920.116 291.939,947.455 " />
<polygon stroke="black" stroke-width="1" fill="grey" fill-opacity="0.25" points="9.704,893.396 22.338,926.054 32.712,920.116 20.961,889.739 " />
<polygon stroke="black" stroke-width="1" fill="grey" fill-opacity="0.25" points="219.740,668.493 187.362,661.596 186.209,674.132 216.325,680.547 " />
<polygon stroke="black" stroke-width="1" fill="grey" fill-opacity="0.25" points="250.240,1000.081 277.689,980.442 270.226,970.705 244.694,988.972 " />
<polygon stroke="black" stroke-width="1" fill="grey" fill-opacity="0.25" points="277.689,701.659 250.240,682.020 244.695,693.129 270.226,711.397 " />
<polygon stroke="black" stroke-width="1" fill="grey" fill-opacity="0.25" points="3.264,823.376 3.264,858.725 14.971,857.491 14.971,824.611 " />
<polygon stroke="black" stroke-width="1" fill="grey" fill-opacity="0.25" points="187.362,1020.505 219.740,1013.609 216.325,1001.555 186.209,1007.969 " />
<polygon stroke="black" stroke-width="1" fill="grey" fill-opacity="0.25" points="319.373,756.047 301.032,726.655 291.939,734.646 308.998,761.985 " />
<polygon stroke="black" stroke-width="1" fill="grey" fill-opacity="0.25" points="22.338,756.047 9.704,788.706 20.962,792.362 32.712,761.985 " />
<polygon stroke="black" stroke-width="1" fill="grey" fill-opacity="0.25" points="121.971,1013.609 154.349,1020.505 155.502,1007.969 125.386,1001.555 " />
<polygon stroke="black" stroke-width="1" fill="grey" fill-opacity="0.25" points="338.447,858.725 338.447,823.376 326.740,824.611 326.740,857.491 " />
<polygon stroke="black" stroke-width="1" fill="grey" fill-opacity="0.25" points="64.022,701.659 40.679,726.655 49.772,734.646 71.485,711.396 " />
<polygon stroke="black" stroke-width="1" fill="grey" fill-opacity="0.25" points="414.419,1023.409 443.379,1024.000 449.229,682.161 431.745,681.804 " />
<polygon stroke="black" stroke-width="1" fill="grey" fill-opacity="0.25" points="64.022,980.442 91.471,1000.081 97.016,988.972 71.485,970.705 " />
<polygon stroke="black" stroke-width="1" fill="grey" fill-opacity="0.25" points="121.971,668.492 91.471,682.020 97.017,693.129 125.386,680.547 " />
<polygon stroke="black" stroke-width="1" fill="grey" fill-opacity="0.25" points="319.373,926.054 332.006,893.396 320.749,889.739 308.998,920.116 " />
<polygon stroke="black" stroke-width="1" fill="grey" fill-opacity="0.25" points="22.338,926.054 40.678,955.446 49.772,947.455 32.712,920.116 " />
<polygon stroke="black" stroke-width="1" fill="grey" fill-opacity="0.25" points="187.362,661.596 154.349,661.596 155.502,674.132 186.209,674.132 " />
<polygon stroke="black" stroke-width="1" fill="grey" fill-opacity="0.25" points="277.689,980.442 301.032,955.446 291.939,947.455 270.226,970.705 " />
<polygon stroke="black" stroke-width="1" fill="grey" fill-opacity="0.25" points="3.264,858.725 9.704,893.396 20.961,889.739 14.971,857.491 " />
<polygon stroke="black" stroke-width="1" fill="grey" fill-opacity="0.25" points="250.240,682.020 219.740,668.493 216.325,680.547 244.695,693.129 " />
<polygon stroke="black" stroke-width="1" fill="grey" fill-opacity="0.25" points="219.740,1013.609 250.240,1000.081 244.694,988.972 216.325,1001.555 " />
<polygon stroke="black" stroke-width="1" fill="grey" fill-opacity="0.25" points="301.032,726.655 277.689,701.659 270.226,711.397 291.939,734.646 " />
<polygon stroke="black" stroke-width="1" fill="grey" fill-opacity="0.25" points="9.704,788.706 3.264,823.376 14.971,824.611 20.962,792.362 " />
<polygon stroke="black" stroke-width="1" fill="grey" fill-opacity="0.25" points="154.349,1020.505 187.362,1020.505 186.209,1007.969 155.502,1007.969 " />
<polygon stroke="black" stroke-width="1" fill="grey" fill-opacity="0.25" points="332.006,788.706 319.373,756.047 308.998,761.985 320.749,792.362 " />
<polygon stroke="black" stroke-width="1" fill="grey" fill-opacity="0.25" points="40.679,726.655 22.338,756.047 32.712,761.985 49.772,734.646 " />
<polygon stroke="black" stroke-width="1" fill="grey" fill-opacity="0.25" points="91.471,1000.081 121.971,1013.609 125.386,1001.555 97.016,988.972 " />
<polygon stroke="black" stroke-width="1" fill="grey" fill-opacity="0.25" points="91.471,682.020 64.022,701.659 71.485,711.396 97.017,693.129 " />
<polygon stroke="black" stroke-width="1" fill="grey" fill-opacity="0.25" points="219.740,668.493 250.240,682.020 251.786,678.923 220.692,665.132 " />
<polygon stroke="black" stroke-width="1" fill="grey" fill-opacity="0.25" points="334.679,60.407 299.339,65.303 297.582,94.705 332.846,91.067 " />
<polygon stroke="black" stroke-width="1" fill="grey" fill-opacity="0.25" points="301.032,955.446 277.689,980.442 279.769,983.157 303.567,957.674 " />
<polygon stroke="black" stroke-width="1" fill="grey" fill-opacity="0.25" points="237.193,135.226 202.007,135.983 202.007,171.344 237.193,172.101 " />
<polygon stroke="black" stroke-width="1" fill="grey" fill-opacity="0.25" points="22.338,756.047 40.679,726.655 38.143,724.427 19.445,754.392 " />
<polygon stroke="black" stroke-width="1" fill="grey" fill-opacity="0.25" points="40.678,955.446 22.338,926.054 19.445,927.710 38.143,957.674 " />
<polygon stroke="black" stroke-width="1" fill="grey" fill-opacity="0.25" points="287.457,268.429 252.163,265.147 254.179,294.530 289.560,299.069 " />
<polygon stroke="black" stroke-width="1" fill="grey" fill-opacity="0.25" points="285.894,91.095 250.664,95.089 249.741,127.770 284.932,125.173 " />
<polygon stroke="black" stroke-width="1" fill="grey" fill-opacity="0.25" points="277.689,701.659 301.032,726.655 303.567,724.427 279.769,698.945 " />
<polygon stroke="black" stroke-width="1" fill="grey" fill-opacity="0.25" points="1013.178,923.148 977.987,922.747 978.910,957.422 1014.141,959.306 " />
<polygon stroke="black" stroke-width="1" fill="grey" fill-opacity="0.25" points="250.240,1000.081 219.740,1013.609 220.692,1016.969 251.786,1003.178 " />
<polygon stroke="black" stroke-width="1" fill="grey" fill-opacity="0.25" points="1017.806,759.252 982.425,765.575 980.409,790.601 1015.703,785.348 " />
<polygon stroke="black" stroke-width="1" fill="grey" fill-opacity="0.25" points="64.022,701.659 91.471,682.020 89.925,678.923 61.942,698.945 " />
<polygon stroke="black" stroke-width="1" fill="grey" fill-opacity="0.25" points="331.583,125.134 296.371,127.375 295.754,162.057 330.940,161.301 " />
<polygon stroke="black" stroke-width="1" fill="grey" fill-opacity="0.25" points="237.836,208.267 202.624,206.026 203.835,238.696 239.099,242.335 " />
<polygon stroke="black" stroke-width="1" fill="grey" fill-opacity="0.25" points="22.338,926.054 9.704,893.396 6.566,894.415 19.445,927.710 " />
<polygon stroke="black" stroke-width="1" fill="grey" fill-opacity="0.25" points="301.032,726.655 319.373,756.047 322.265,754.392 303.567,724.427 " />
<polygon stroke="black" stroke-width="1" fill="grey" fill-opacity="0.25" points="332.006,788.706 338.447,823.376 341.711,823.032 335.145,787.687 " />
<polygon stroke="black" stroke-width="1" fill="grey" fill-opacity="0.25" points="219.740,1013.609 187.362,1020.505 187.683,1024.000 220.692,1016.969 " />
<polygon stroke="black" stroke-width="1" fill="grey" fill-opacity="0.25" points="91.471,682.020 121.971,668.492 121.019,665.132 89.925,678.923 " />
<polygon stroke="black" stroke-width="1" fill="grey" fill-opacity="0.25" points="284.607,161.344 249.430,162.456 249.741,197.816 284.932,198.217 " />
<polygon stroke="black" stroke-width="1" fill="grey" fill-opacity="0.25" points="1015.703,993.360 980.409,990.078 982.425,1019.461 1017.806,1024.000 " />
<polygon stroke="black" stroke-width="1" fill="grey" fill-opacity="0.25" points="92.597,328.233 121.432,315.443 120.480,312.083 91.051,325.136 " />
<polygon stroke="black" stroke-width="1" fill="grey" fill-opacity="0.25" points="1014.141,816.026 978.910,820.020 977.987,852.701 1013.178,850.105 " />
<polygon stroke="black" stroke-width="1" fill="grey" fill-opacity="0.25" points="9.704,893.396 3.264,858.725 0.000,859.069 6.566,894.415 " />
<polygon stroke="black" stroke-width="1" fill="grey" fill-opacity="0.25" points="239.099,64.993 203.835,68.631 202.624,101.301 237.836,99.060 " />
<polygon stroke="black" stroke-width="1" fill="grey" fill-opacity="0.25" points="330.940,198.175 295.754,197.419 296.371,232.101 331.583,234.341 " />
<polygon stroke="black" stroke-width="1" fill="grey" fill-opacity="0.25" points="240.932,272.995 205.592,268.098 207.830,293.103 243.264,299.069 " />
<polygon stroke="black" stroke-width="1" fill="grey" fill-opacity="0.25" points="187.362,1020.505 154.349,1020.505 154.028,1024.000 187.683,1024.000 " />
<polygon stroke="black" stroke-width="1" fill="grey" fill-opacity="0.25" points="121.971,668.492 154.349,661.596 154.028,658.101 121.019,665.132 " />
<polygon stroke="black" stroke-width="1" fill="grey" fill-opacity="0.25" points="237.836,99.060 202.624,101.301 202.007,135.983 237.193,135.226 " />
<polygon stroke="black" stroke-width="1" fill="grey" fill-opacity="0.25" points="44.576,370.432 66.646,346.800 64.565,344.086 42.041,368.204 " />
<polygon stroke="black" stroke-width="1" fill="grey" fill-opacity="0.25" points="121.432,315.443 152.044,308.923 151.722,305.429 120.480,312.083 " />
<polygon stroke="black" stroke-width="1" fill="grey" fill-opacity="0.25" points="250.240,682.020 277.689,701.659 279.769,698.945 251.786,678.923 " />
<polygon stroke="black" stroke-width="1" fill="grey" fill-opacity="0.25" points="152.044,308.923 183.255,308.923 183.576,305.429 151.722,305.429 " />
<polygon stroke="black" stroke-width="1" fill="grey" fill-opacity="0.25" points="183.255,308.923 213.866,315.443 214.818,312.083 183.576,305.429 " />
<polygon stroke="black" stroke-width="1" fill="grey" fill-opacity="0.25" points="213.866,315.443 242.701,328.233 244.247,325.136 214.818,312.083 " />
<polygon stroke="black" stroke-width="1" fill="grey" fill-opacity="0.25" points="242.701,328.233 268.653,346.800 270.733,344.086 244.247,325.136 " />
<polygon stroke="black" stroke-width="1" fill="grey" fill-opacity="0.25" points="290.722,370.432 308.062,398.220 310.955,396.565 293.257,368.204 " />
<polygon stroke="black" stroke-width="1" fill="grey" fill-opacity="0.25" points="308.062,398.220 320.006,429.097 323.145,428.077 310.955,396.565 " />
<polygon stroke="black" stroke-width="1" fill="grey" fill-opacity="0.25" points="40.679,726.655 64.022,701.659 61.942,698.945 38.143,724.427 " />
<polygon stroke="black" stroke-width="1" fill="grey" fill-opacity="0.25" points="320.006,429.097 326.095,461.875 329.359,461.531 323.145,428.077 " />
<polygon stroke="black" stroke-width="1" fill="grey" fill-opacity="0.25" points="326.095,461.875 326.095,495.295 329.359,495.640 329.359,461.531 " />
<polygon stroke="black" stroke-width="1" fill="grey" fill-opacity="0.25" points="326.095,495.295 320.006,528.074 323.145,529.093 329.359,495.640 " />
<polygon stroke="black" stroke-width="1" fill="grey" fill-opacity="0.25" points="320.006,528.074 308.062,558.950 310.955,560.605 323.145,529.093 " />
<polygon stroke="black" stroke-width="1" fill="grey" fill-opacity="0.25" points="308.062,558.950 290.722,586.738 293.257,588.966 310.955,560.605 " />
<polygon stroke="black" stroke-width="1" fill="grey" fill-opacity="0.25" points="268.653,610.370 242.701,628.937 244.247,632.034 270.733,613.085 " />
<polygon stroke="black" stroke-width="1" fill="grey" fill-opacity="0.25" points="242.701,628.937 213.866,641.727 214.818,645.087 244.247,632.034 " />
<polygon stroke="black" stroke-width="1" fill="grey" fill-opacity="0.25" points="64.022,980.442 40.678,955.446 38.143,957.674 61.941,983.157 " />
<polygon stroke="black" stroke-width="1" fill="grey" fill-opacity="0.25" points="213.866,641.727 183.255,648.247 183.576,651.742 214.818,645.087 " />
<polygon stroke="black" stroke-width="1" fill="grey" fill-opacity="0.25" points="183.255,648.247 152.044,648.247 151.722,651.742 183.576,651.742 " />
<polygon stroke="black" stroke-width="1" fill="grey" fill-opacity="0.25" points="152.044,648.247 121.432,641.727 120.480,645.087 151.722,651.742 " />
<polygon stroke="black" stroke-width="1" fill="grey" fill-opacity="0.25" points="121.432,641.727 92.597,628.937 91.051,632.034 120.480,645.087 " />
<polygon stroke="black" stroke-width="1" fill="grey" fill-opacity="0.25" points="66.646,610.370 44.576,586.738 42.041,588.966 64.565,613.085 " />
<polygon stroke="black" stroke-width="1" fill="grey" fill-opacity="0.25" points="44.576,586.738 27.236,558.950 24.344,560.605 42.041,588.966 " />
<polygon stroke="black" stroke-width="1" fill="grey" fill-opacity="0.25" points="277.689,980.442 250.240,1000.081 251.786,1003.178 279.769,983.157 " />
<polygon stroke="black" stroke-width="1" fill="grey" fill-opacity="0.25" points="27.236,558.950 15.292,528.074 12.154,529.093 24.344,560.605 " />
<polygon stroke="black" stroke-width="1" fill="grey" fill-opacity="0.25" points="15.292,528.074 9.203,495.295 5.939,495.639 12.154,529.093 " />
<polygon stroke="black" stroke-width="1" fill="grey" fill-opacity="0.25" points="9.203,495.295 9.203,461.875 5.939,461.531 5.939,495.639 " />
<polygon stroke="black" stroke-width="1" fill="grey" fill-opacity="0.25" points="9.203,461.875 15.292,429.096 12.154,428.077 5.939,461.531 " />
<polygon stroke="black" stroke-width="1" fill="grey" fill-opacity="0.25" points="15.292,429.096 27.236,398.220 24.344,396.565 12.154,428.077 " />
<polygon stroke="black" stroke-width="1" fill="grey" fill-opacity="0.25" points="319.373,756.047 332.006,788.706 335.145,787.687 322.265,754.392 " />
<polygon stroke="black" stroke-width="1" fill="grey" fill-opacity="0.25" points="240.932,34.333 205.593,39.229 203.835,68.631 239.099,64.993 " />
<polygon stroke="black" stroke-width="1" fill="grey" fill-opacity="0.25" points="331.583,234.341 296.371,232.101 297.582,264.771 332.846,268.409 " />
<polygon stroke="black" stroke-width="1" fill="grey" fill-opacity="0.25" points="91.471,1000.081 64.022,980.442 61.941,983.157 89.925,1003.178 " />
<polygon stroke="black" stroke-width="1" fill="grey" fill-opacity="0.25" points="1013.178,850.105 977.987,852.701 977.676,887.387 1012.853,886.275 " />
<polygon stroke="black" stroke-width="1" fill="grey" fill-opacity="0.25" points="289.560,34.321 254.179,40.644 252.163,65.670 287.457,60.417 " />
<polygon stroke="black" stroke-width="1" fill="grey" fill-opacity="0.25" points="284.932,198.217 249.741,197.816 250.664,232.491 285.894,234.375 " />
<polygon stroke="black" stroke-width="1" fill="grey" fill-opacity="0.25" points="9.704,788.706 22.338,756.047 19.445,754.392 6.566,787.686 " />
<polygon stroke="black" stroke-width="1" fill="grey" fill-opacity="0.25" points="319.373,926.054 301.032,955.446 303.567,957.674 322.265,927.710 " />
<polygon stroke="black" stroke-width="1" fill="grey" fill-opacity="0.25" points="187.362,661.596 219.740,668.493 220.692,665.132 187.683,658.101 " />
<polygon stroke="black" stroke-width="1" fill="grey" fill-opacity="0.25" points="121.971,1013.609 91.471,1000.081 89.925,1003.178 121.019,1016.969 " />
<polygon stroke="black" stroke-width="1" fill="grey" fill-opacity="0.25" points="239.099,242.335 203.835,238.696 205.592,268.098 240.932,272.995 " />
<polygon stroke="black" stroke-width="1" fill="grey" fill-opacity="0.25" points="330.940,161.301 295.754,162.057 295.754,197.419 330.940,198.175 " />
<polygon stroke="black" stroke-width="1" fill="grey" fill-opacity="0.25" points="3.264,823.376 9.704,788.706 6.566,787.686 0.000,823.032 " />
<polygon stroke="black" stroke-width="1" fill="grey" fill-opacity="0.25" points="1015.703,785.348 980.409,790.601 978.910,820.020 1014.141,816.026 " />
<polygon stroke="black" stroke-width="1" fill="grey" fill-opacity="0.25" points="332.006,893.396 319.373,926.054 322.265,927.710 335.145,894.415 " />
<polygon stroke="black" stroke-width="1" fill="grey" fill-opacity="0.25" points="1014.141,959.306 978.910,957.422 980.409,990.078 1015.703,993.360 " />
<polygon stroke="black" stroke-width="1" fill="grey" fill-opacity="0.25" points="154.349,661.596 187.362,661.596 187.683,658.101 154.028,658.101 " />
<polygon stroke="black" stroke-width="1" fill="grey" fill-opacity="0.25" points="284.932,125.173 249.741,127.770 249.430,162.456 284.607,161.344 " />
<polygon stroke="black" stroke-width="1" fill="grey" fill-opacity="0.25" points="154.349,1020.505 121.971,1013.609 121.019,1016.969 154.028,1024.000 " />
<polygon stroke="black" stroke-width="1" fill="grey" fill-opacity="0.25" points="243.264,8.258 207.830,14.224 205.593,39.229 240.932,34.333 " />
<polygon stroke="black" stroke-width="1" fill="grey" fill-opacity="0.25" points="3.264,858.725 3.264,823.376 0.000,823.032 0.000,859.069 " />
<polygon stroke="black" stroke-width="1" fill="grey" fill-opacity="0.25" points="237.193,172.101 202.007,171.344 202.624,206.026 237.836,208.267 " />
<polygon stroke="black" stroke-width="1" fill="grey" fill-opacity="0.25" points="338.447,858.725 332.006,893.396 335.145,894.415 341.711,859.070 " />
<polygon stroke="black" stroke-width="1" fill="grey" fill-opacity="0.25" points="332.846,91.067 297.582,94.705 296.371,127.375 331.583,125.134 " />
<polygon stroke="black" stroke-width="1" fill="grey" fill-opacity="0.25" points="268.653,346.800 290.722,370.432 293.257,368.204 270.733,344.086 " />
<polygon stroke="black" stroke-width="1" fill="grey" fill-opacity="0.25" points="332.846,268.409 297.582,264.771 299.339,294.173 334.679,299.069 " />
<polygon stroke="black" stroke-width="1" fill="grey" fill-opacity="0.25" points="92.597,628.937 66.646,610.370 64.565,613.085 91.051,632.034 " />
<polygon stroke="black" stroke-width="1" fill="grey" fill-opacity="0.25" points="1012.853,886.275 977.676,887.387 977.987,922.747 1013.178,923.148 " />
<polygon stroke="black" stroke-width="1" fill="grey" fill-opacity="0.25" points="287.457,60.417 252.163,65.670 250.664,95.089 285.894,91.095 " />
<polygon stroke="black" stroke-width="1" fill="grey" fill-opacity="0.25" points="285.894,234.375 250.664,232.491 252.163,265.147 287.457,268.429 " />
<polygon stroke="black" stroke-width="1" fill="grey" fill-opacity="0.25" points="290.722,586.738 268.653,610.370 270.733,613.085 293.257,588.966 " />
<polygon stroke="black" stroke-width="1" fill="grey" fill-opacity="0.25" points="27.236,398.220 44.576,370.432 42.041,368.204 24.344,396.565 " />
<polygon stroke="black" stroke-width="1" fill="grey" fill-opacity="0.25" points="64.565,344.086 91.051,325.136 88.237,319.500 60.779,339.146 " />
<polygon stroke="black" stroke-width="1" fill="grey" fill-opacity="0.25" points="91.051,325.136 120.480,312.083 118.748,305.968 88.237,319.500 " />
<polygon stroke="black" stroke-width="1" fill="grey" fill-opacity="0.25" points="120.480,312.083 151.722,305.429 151.137,299.069 118.748,305.968 " />
<polygon stroke="black" stroke-width="1" fill="grey" fill-opacity="0.25" points="151.722,305.429 183.576,305.429 184.161,299.069 151.137,299.069 " />
<polygon stroke="black" stroke-width="1" fill="grey" fill-opacity="0.25" points="183.576,305.429 214.818,312.083 216.551,305.968 184.161,299.069 " />
<polygon stroke="black" stroke-width="1" fill="grey" fill-opacity="0.25" points="214.818,312.083 244.247,325.136 247.061,319.500 216.551,305.968 " />
<polygon stroke="black" stroke-width="1" fill="grey" fill-opacity="0.25" points="244.247,325.136 270.733,344.086 274.519,339.146 247.061,319.500 " />
<polygon stroke="black" stroke-width="1" fill="grey" fill-opacity="0.25" points="270.733,344.086 293.257,368.204 297.871,364.150 274.519,339.146 " />
<polygon stroke="black" stroke-width="1" fill="grey" fill-opacity="0.25" points="293.257,368.204 310.955,396.565 316.218,393.552 297.871,364.150 " />
<polygon stroke="black" stroke-width="1" fill="grey" fill-opacity="0.25" points="310.955,396.565 323.145,428.077 328.856,426.222 316.218,393.552 " />
<polygon stroke="black" stroke-width="1" fill="grey" fill-opacity="0.25" points="323.145,428.077 329.359,461.531 335.298,460.904 328.856,426.222 " />
<polygon stroke="black" stroke-width="1" fill="grey" fill-opacity="0.25" points="329.359,461.531 329.359,495.640 335.298,496.266 335.298,460.904 " />
<polygon stroke="black" stroke-width="1" fill="grey" fill-opacity="0.25" points="329.359,495.640 323.145,529.093 328.856,530.948 335.298,496.266 " />
<polygon stroke="black" stroke-width="1" fill="grey" fill-opacity="0.25" points="323.145,529.093 310.955,560.605 316.218,563.618 328.856,530.948 " />
<polygon stroke="black" stroke-width="1" fill="grey" fill-opacity="0.25" points="310.955,560.605 293.257,588.966 297.871,593.020 316.218,563.618 " />
<polygon stroke="black" stroke-width="1" fill="grey" fill-opacity="0.25" points="293.257,588.966 270.733,613.085 274.519,618.025 297.871,593.020 " />
<polygon stroke="black" stroke-width="1" fill="grey" fill-opacity="0.25" points="270.733,613.085 244.247,632.034 247.061,637.670 274.519,618.025 " />
<polygon stroke="black" stroke-width="1" fill="grey" fill-opacity="0.25" points="244.247,632.034 214.818,645.087 216.551,651.203 247.061,637.670 " />
<polygon stroke="black" stroke-width="1" fill="grey" fill-opacity="0.25" points="214.818,645.087 183.576,651.742 184.161,658.101 216.551,651.203 " />
<polygon stroke="black" stroke-width="1" fill="grey" fill-opacity="0.25" points="183.576,651.742 151.722,651.742 151.137,658.101 184.161,658.101 " />
<polygon stroke="black" stroke-width="1" fill="grey" fill-opacity="0.25" points="151.722,651.742 120.480,645.087 118.748,651.203 151.137,658.101 " />
<polygon stroke="black" stroke-width="1" fill="grey" fill-opacity="0.25" points="120.480,645.087 91.051,632.034 88.237,637.670 118.748,651.203 " />
<polygon stroke="black" stroke-width="1" fill="grey" fill-opacity="0.25" points="91.051,632.034 64.565,613.085 60.779,618.024 88.237,637.670 " />
<polygon stroke="black" stroke-width="1" fill="grey" fill-opacity="0.25" points="64.565,613.085 42.041,588.966 37.428,593.020 60.779,618.024 " />
<polygon stroke="black" stroke-width="1" fill="grey" fill-opacity="0.25" points="42.041,588.966 24.344,560.605 19.080,563.618 37.428,593.020 " />
<polygon stroke="black" stroke-width="1" fill="grey" fill-opacity="0.25" points="24.344,560.605 12.154,529.093 6.443,530.948 19.080,563.618 " />
<polygon stroke="black" stroke-width="1" fill="grey" fill-opacity="0.25" points="12.154,529.093 5.939,495.639 0.000,496.266 6.443,530.948 " />
<polygon stroke="black" stroke-width="1" fill="grey" fill-opacity="0.25" points="5.939,495.639 5.939,461.531 0.000,460.904 0.000,496.266 " />
<polygon stroke="black" stroke-width="1" fill="grey" fill-opacity="0.25" points="5.939,461.531 12.154,428.077 6.443,426.222 0.000,460.904 " />
<polygon stroke="black" stroke-width="1" fill="grey" fill-opacity="0.25" points="12.154,428.077 24.344,396.565 19.080,393.552 6.443,426.222 " />
<polygon stroke="black" stroke-width="1" fill="grey" fill-opacity="0.25" points="42.041,368.204 64.565,344.086 60.779,339.146 37.428,364.150 " />
<polygon stroke="black" stroke-width="1" fill="grey" fill-opacity="0.25" points="24.344,396.565 42.041,368.204 37.428,364.150 19.080,393.552 " />
<polygon stroke="black" stroke-width="1" fill="grey" fill-opacity="0.25" points="66.646,346.800 92.597,328.233 91.051,325.136 64.565,344.086 " />
<polygon stroke="black" stroke-width="1" fill="grey" fill-opacity="0.25" points="239.099,64.993 237.836,99.060 244.125,100.299 245.359,67.005 " />
<polygon stroke="black" stroke-width="1" fill="grey" fill-opacity="0.25" points="237.836,99.060 237.193,135.226 243.496,135.645 244.125,100.299 " />
<polygon stroke="black" stroke-width="1" fill="grey" fill-opacity="0.25" points="237.193,135.226 237.193,172.101 243.496,171.682 243.496,135.645 " />
<polygon stroke="black" stroke-width="1" fill="grey" fill-opacity="0.25" points="237.193,172.101 237.836,208.267 244.125,207.028 243.496,171.682 " />
<polygon stroke="black" stroke-width="1" fill="grey" fill-opacity="0.25" points="237.836,208.267 239.099,242.335 245.358,240.323 244.125,207.028 " />
<polygon stroke="black" stroke-width="1" fill="grey" fill-opacity="0.25" points="239.099,242.335 240.932,272.995 247.150,270.287 245.358,240.323 " />
<polygon stroke="black" stroke-width="1" fill="grey" fill-opacity="0.25" points="240.932,272.995 243.264,299.069 249.430,295.770 247.150,270.287 " />
<polygon stroke="black" stroke-width="1" fill="grey" fill-opacity="0.25" points="334.679,60.407 332.846,91.067 339.105,93.079 340.897,63.114 " />
<polygon stroke="black" stroke-width="1" fill="grey" fill-opacity="0.25" points="332.846,91.067 331.583,125.134 337.872,126.373 339.105,93.079 " />
<polygon stroke="black" stroke-width="1" fill="grey" fill-opacity="0.25" points="331.583,125.134 330.940,161.301 337.243,161.719 337.872,126.373 " />
<polygon stroke="black" stroke-width="1" fill="grey" fill-opacity="0.25" points="330.940,161.301 330.940,198.175 337.243,197.757 337.243,161.719 " />
<polygon stroke="black" stroke-width="1" fill="grey" fill-opacity="0.25" points="330.940,198.175 331.583,234.341 337.872,233.102 337.243,197.757 " />
<polygon stroke="black" stroke-width="1" fill="grey" fill-opacity="0.25" points="331.583,234.341 332.846,268.409 339.105,266.397 337.872,233.102 " />
<polygon stroke="black" stroke-width="1" fill="grey" fill-opacity="0.25" points="332.846,268.409 334.679,299.069 340.897,296.361 339.105,266.397 " />
<polygon stroke="black" stroke-width="1" fill="grey" fill-opacity="0.25" points="1017.806,759.252 1015.703,785.348 1021.945,787.993 1024.000,762.489 " />
<polygon stroke="black" stroke-width="1" fill="grey" fill-opacity="0.25" points="1015.703,785.348 1014.141,816.026 1020.418,817.974 1021.945,787.993 " />
<polygon stroke="black" stroke-width="1" fill="grey" fill-opacity="0.25" points="1014.141,816.026 1013.178,850.105 1019.477,851.280 1020.418,817.974 " />
<polygon stroke="black" stroke-width="1" fill="grey" fill-opacity="0.25" points="1013.178,850.105 1012.853,886.275 1019.160,886.630 1019.477,851.280 " />
<polygon stroke="black" stroke-width="1" fill="grey" fill-opacity="0.25" points="1012.853,886.275 1013.178,923.148 1019.477,922.666 1019.160,886.630 " />
<polygon stroke="black" stroke-width="1" fill="grey" fill-opacity="0.25" points="1013.178,923.148 1014.141,959.306 1020.418,958.004 1019.477,922.666 " />
<polygon stroke="black" stroke-width="1" fill="grey" fill-opacity="0.25" points="1014.141,959.306 1015.703,993.360 1021.945,991.285 1020.418,958.004 " />
<polygon stroke="black" stroke-width="1" fill="grey" fill-opacity="0.25" points="1015.703,993.360 1017.806,1024.000 1024.000,1021.230 1021.945,991.285 " />
<polygon stroke="black" stroke-width="1" fill="grey" fill-opacity="0.25" points="289.560,34.321 287.457,60.417 293.699,63.062 295.754,37.558 " />
<polygon stroke="black" stroke-width="1" fill="grey" fill-opacity="0.25" points="287.457,60.417 285.894,91.095 292.171,93.043 293.699,63.062 " />
<polygon stroke="black" stroke-width="1" fill="grey" fill-opacity="0.25" points="285.894,91.095 284.932,125.173 291.231,126.349 292.171,93.043 " />
<polygon stroke="black" stroke-width="1" fill="grey" fill-opacity="0.25" points="284.932,125.173 284.607,161.344 290.913,161.699 291.231,126.349 " />
<polygon stroke="black" stroke-width="1" fill="grey" fill-opacity="0.25" points="284.607,161.344 284.932,198.217 291.231,197.735 290.913,161.699 " />
<polygon stroke="black" stroke-width="1" fill="grey" fill-opacity="0.25" points="284.932,198.217 285.894,234.375 292.171,233.073 291.231,197.735 " />
<polygon stroke="black" stroke-width="1" fill="grey" fill-opacity="0.25" points="285.894,234.375 287.457,268.429 293.699,266.354 292.171,233.073 " />
<polygon stroke="black" stroke-width="1" fill="grey" fill-opacity="0.25" points="287.457,268.429 289.560,299.069 295.754,296.299 293.699,266.354 " />
<polygon stroke="black" stroke-width="1" fill="grey" fill-opacity="0.25" points="243.264,8.258 240.932,34.333 247.150,37.040 249.430,11.558 " />
<polygon stroke="black" stroke-width="1" fill="grey" fill-opacity="0.25" points="240.932,34.333 239.099,64.993 245.359,67.005 247.150,37.040 " />
<polygon stroke="black" stroke-width="1" fill="grey" fill-opacity="0.25" points="338.447,823.376 338.447,858.725 341.711,859.070 341.711,823.032 " />
<polygon stroke="black" stroke-width="1" fill="grey" fill-opacity="0.25" points="326.740,824.611 320.749,792.362 314.991,794.233 320.752,825.242 " />
<polygon stroke="black" stroke-width="1" fill="grey" fill-opacity="0.25" points="320.749,792.362 308.998,761.985 303.692,765.022 314.991,794.233 " />
<polygon stroke="black" stroke-width="1" fill="grey" fill-opacity="0.25" points="308.998,761.985 291.939,734.646 287.287,738.734 303.692,765.022 " />
<polygon stroke="black" stroke-width="1" fill="grey" fill-opacity="0.25" points="291.939,734.646 270.226,711.397 266.409,716.377 287.287,738.734 " />
<polygon stroke="black" stroke-width="1" fill="grey" fill-opacity="0.25" points="270.226,711.397 244.695,693.129 241.858,698.812 266.409,716.377 " />
<polygon stroke="black" stroke-width="1" fill="grey" fill-opacity="0.25" points="244.695,693.129 216.325,680.547 214.579,686.712 241.858,698.812 " />
<polygon stroke="black" stroke-width="1" fill="grey" fill-opacity="0.25" points="216.325,680.547 186.209,674.132 185.619,680.544 214.579,686.712 " />
<polygon stroke="black" stroke-width="1" fill="grey" fill-opacity="0.25" points="186.209,674.132 155.502,674.132 156.092,680.544 185.619,680.544 " />
<polygon stroke="black" stroke-width="1" fill="grey" fill-opacity="0.25" points="155.502,674.132 125.386,680.547 127.132,686.712 156.092,680.544 " />
<polygon stroke="black" stroke-width="1" fill="grey" fill-opacity="0.25" points="125.386,680.547 97.017,693.129 99.853,698.811 127.132,686.712 " />
<polygon stroke="black" stroke-width="1" fill="grey" fill-opacity="0.25" points="97.017,693.129 71.485,711.396 75.302,716.377 99.853,698.811 " />
<polygon stroke="black" stroke-width="1" fill="grey" fill-opacity="0.25" points="71.485,711.396 49.772,734.646 54.423,738.734 75.302,716.377 " />
<polygon stroke="black" stroke-width="1" fill="grey" fill-opacity="0.25" points="49.772,734.646 32.712,761.985 38.019,765.022 54.423,738.734 " />
<polygon stroke="black" stroke-width="1" fill="grey" fill-opacity="0.25" points="32.712,761.985 20.962,792.362 26.720,794.232 38.019,765.022 " />
<polygon stroke="black" stroke-width="1" fill="grey" fill-opacity="0.25" points="20.962,792.362 14.971,824.611 20.959,825.242 26.720,794.232 " />
<polygon stroke="black" stroke-width="1" fill="grey" fill-opacity="0.25" points="14.971,824.611 14.971,857.491 20.959,856.859 20.959,825.242 " />
<polygon stroke="black" stroke-width="1" fill="grey" fill-opacity="0.25" points="14.971,857.491 20.961,889.739 26.720,887.869 20.959,856.859 " />
<polygon stroke="black" stroke-width="1" fill="grey" fill-opacity="0.25" points="20.961,889.739 32.712,920.116 38.019,917.079 26.720,887.869 " />
<polygon stroke="black" stroke-width="1" fill="grey" fill-opacity="0.25" points="32.712,920.116 49.772,947.455 54.423,943.368 38.019,917.079 " />
<polygon stroke="black" stroke-width="1" fill="grey" fill-opacity="0.25" points="49.772,947.455 71.485,970.705 75.302,965.724 54.423,943.368 " />
<polygon stroke="black" stroke-width="1" fill="grey" fill-opacity="0.25" points="71.485,970.705 97.016,988.972 99.853,983.290 75.302,965.724 " />
<polygon stroke="black" stroke-width="1" fill="grey" fill-opacity="0.25" points="97.016,988.972 125.386,1001.555 127.132,995.389 99.853,983.290 " />
<polygon stroke="black" stroke-width="1" fill="grey" fill-opacity="0.25" points="125.386,1001.555 155.502,1007.969 156.092,1001.557 127.132,995.389 " />
<polygon stroke="black" stroke-width="1" fill="grey" fill-opacity="0.25" points="155.502,1007.969 186.209,1007.969 185.619,1001.557 156.092,1001.557 " />
<polygon stroke="black" stroke-width="1" fill="grey" fill-opacity="0.25" points="186.209,1007.969 216.325,1001.555 214.578,995.389 185.619,1001.557 " />
<polygon stroke="black" stroke-width="1" fill="grey" fill-opacity="0.25" points="216.325,1001.555 244.694,988.972 241.858,983.290 214.578,995.389 " />
<polygon stroke="black" stroke-width="1" fill="grey" fill-opacity="0.25" points="244.694,988.972 270.226,970.705 266.409,965.724 241.858,983.290 " />
<polygon stroke="black" stroke-width="1" fill="grey" fill-opacity="0.25" points="270.226,970.705 291.939,947.455 287.287,943.368 266.409,965.724 " />
<polygon stroke="black" stroke-width="1" fill="grey" fill-opacity="0.25" points="291.939,947.455 308.998,920.116 303.692,917.079 287.287,943.368 " />
<polygon stroke="black" stroke-width="1" fill="grey" fill-opacity="0.25" points="308.998,920.116 320.749,889.739 314.991,887.869 303.692,917.079 " />
<polygon stroke="black" stroke-width="1" fill="grey" fill-opacity="0.25" points="320.749,889.739 326.740,857.491 320.752,856.859 314.991,887.869 " />
<polygon stroke="black" stroke-width="1" fill="grey" fill-opacity="0.25" points="326.740,857.491 326.740,824.611 320.752,825.242 320.752,856.859 " />
<polygon stroke="black" stroke-width="1" fill="grey" fill-opacity="0.25" points="387.140,1022.250 414.419,1023.409 431.745,681.804 415.275,681.104 " />
<polygon stroke="black" stroke-width="1" fill="grey" fill-opacity="0.25" points="931.860,674.590 950.459,666.341 945.692,656.791 928.925,664.228 " />
<polygon stroke="black" stroke-width="1" fill="grey" fill-opacity="0.25" points="912.116,678.795 931.860,674.590 928.925,664.228 911.125,668.019 " />
<polygon stroke="black" stroke-width="1" fill="grey" fill-opacity="0.25" points="891.984,678.795 912.116,678.795 911.125,668.019 892.976,668.019 " />
<polygon stroke="black" stroke-width="1" fill="grey" fill-opacity="0.25" points="872.240,674.590 891.984,678.795 892.976,668.019 875.175,664.228 " />
<polygon stroke="black" stroke-width="1" fill="grey" fill-opacity="0.25" points="853.641,666.341 872.240,674.590 875.175,664.228 858.408,656.791 " />
<polygon stroke="black" stroke-width="1" fill="grey" fill-opacity="0.25" points="836.902,654.365 853.641,666.341 858.408,656.791 843.318,645.994 " />
<polygon stroke="black" stroke-width="1" fill="grey" fill-opacity="0.25" points="822.667,639.122 836.902,654.365 843.318,645.994 830.484,632.253 " />
<polygon stroke="black" stroke-width="1" fill="grey" fill-opacity="0.25" points="811.483,621.199 822.667,639.122 830.484,632.253 820.401,616.094 " />
<polygon stroke="black" stroke-width="1" fill="grey" fill-opacity="0.25" points="803.779,601.283 811.483,621.199 820.401,616.094 813.456,598.140 " />
<polygon stroke="black" stroke-width="1" fill="grey" fill-opacity="0.25" points="799.852,580.141 803.779,601.283 813.456,598.140 809.915,579.080 " />
<polygon stroke="black" stroke-width="1" fill="grey" fill-opacity="0.25" points="799.852,558.585 799.852,580.141 809.915,579.080 809.915,559.646 " />
<polygon stroke="black" stroke-width="1" fill="grey" fill-opacity="0.25" points="803.779,537.442 799.852,558.585 809.915,559.646 813.456,540.586 " />
<polygon stroke="black" stroke-width="1" fill="grey" fill-opacity="0.25" points="811.483,517.527 803.779,537.442 813.456,540.586 820.401,522.631 " />
<polygon stroke="black" stroke-width="1" fill="grey" fill-opacity="0.25" points="822.667,499.603 811.483,517.527 820.401,522.631 830.484,506.473 " />
<polygon stroke="black" stroke-width="1" fill="grey" fill-opacity="0.25" points="836.902,484.361 822.667,499.603 830.484,506.473 843.318,492.731 " />
<polygon stroke="black" stroke-width="1" fill="grey" fill-opacity="0.25" points="853.641,472.385 836.902,484.361 843.318,492.731 858.408,481.934 " />
<polygon stroke="black" stroke-width="1" fill="grey" fill-opacity="0.25" points="872.240,464.135 853.641,472.385 858.408,481.934 875.175,474.497 " />
<polygon stroke="black" stroke-width="1" fill="grey" fill-opacity="0.25" points="891.984,459.930 872.240,464.135 875.175,474.497 892.976,470.706 " />
<polygon stroke="black" stroke-width="1" fill="grey" fill-opacity="0.25" points="912.116,459.930 891.984,459.930 892.976,470.706 911.125,470.706 " />
<polygon stroke="black" stroke-width="1" fill="grey" fill-opacity="0.25" points="931.860,464.135 912.116,459.930 911.125,470.706 928.925,474.497 " />
<polygon stroke="black" stroke-width="1" fill="grey" fill-opacity="0.25" points="950.459,472.385 931.860,464.135 928.925,474.497 945.692,481.934 " />
<polygon stroke="black" stroke-width="1" fill="grey" fill-opacity="0.25" points="967.198,484.361 950.459,472.385 945.692,481.934 960.783,492.731 " />
<polygon stroke="black" stroke-width="1" fill="grey" fill-opacity="0.25" points="981.433,499.603 967.198,484.361 960.783,492.731 973.616,506.473 " />
<polygon stroke="black" stroke-width="1" fill="grey" fill-opacity="0.25" points="992.617,517.527 981.433,499.603 973.616,506.473 983.699,522.631 " />
<polygon stroke="black" stroke-width="1" fill="grey" fill-opacity="0.25" points="1000.321,537.442 992.617,517.527 983.699,522.631 990.644,540.586 " />
<polygon stroke="black" stroke-width="1" fill="grey" fill-opacity="0.25" points="1004.249,558.584 1000.321,537.442 990.644,540.586 994.185,559.646 " />
<polygon stroke="black" stroke-width="1" fill="grey" fill-opacity="0.25" points="1004.249,580.141 1004.249,558.584 994.185,559.646 994.185,579.080 " />
<polygon stroke="black" stroke-width="1" fill="grey" fill-opacity="0.25" points="1000.321,601.283 1004.249,580.141 994.185,579.080 990.644,598.140 " />
<polygon stroke="black" stroke-width="1" fill="grey" fill-opacity="0.25" points="992.617,621.199 1000.321,601.283 990.644,598.140 983.699,616.094 " />
<polygon stroke="black" stroke-width="1" fill="grey" fill-opacity="0.25" points="981.433,639.122 992.617,621.199 983.699,616.094 973.616,632.253 " />
<polygon stroke="black" stroke-width="1" fill="grey" fill-opacity="0.25" points="967.198,654.365 981.433,639.122 973.616,632.253 960.783,645.994 " />
<polygon stroke="black" stroke-width="1" fill="grey" fill-opacity="0.25" points="950.459,666.341 967.198,654.365 960.783,645.994 945.692,656.791 " />
<polygon stroke="black" stroke-width="1" fill="grey" fill-opacity="0.25" points="389.731,381.505 416.374,677.602 434.973,678.392 418.567,382.731 " />

</svg>
